name Walk3.mot
datacolumns 19
datarows 17
range 1.27600000 1.29200000
endheader

                time	   L_ground_force_vx	   L_ground_force_vy	   L_ground_force_vz	   L_ground_force_px	   L_ground_force_py	   L_ground_force_pz	   R_ground_force_vx	   R_ground_force_vy	   R_ground_force_vz	   R_ground_force_px	   R_ground_force_py	   R_ground_force_pz	   L_ground_torque_x	   L_ground_torque_y	   L_ground_torque_z	   R_ground_torque_x	   R_ground_torque_y	   R_ground_torque_z	
          1.27600000	         -7.06306022	         62.66495368	         -5.06300377	          0.00253007	          0.00000000	          0.00172047	         -0.00000000	          0.00000000	          0.00000000	          0.00000000	          0.00000000	          0.00000000	          0.00000000	          0.04898462	          0.00000000	          0.00000000	          0.00000000	          0.00000000	
          1.27700000	         -7.78527886	         67.81179331	         -5.39238351	         -0.01719757	          0.00000000	          0.00129514	         -0.00000000	          0.00000000	          0.00000000	          0.00000000	          0.00000000	          0.00000000	          0.00000000	          0.05264962	          0.00000000	          0.00000000	          0.00000000	          0.00000000	
          1.27800000	         -8.53058823	         73.12690681	         -5.73126443	         -0.03686526	          0.00000000	          0.00086977	         -0.00000000	          0.00000000	          0.00000000	          0.00000000	          0.00000000	          0.00000000	          0.00000000	          0.05663634	          0.00000000	          0.00000000	          0.00000000	          0.00000000	
          1.27900000	         -9.29830868	         78.60461761	         -6.07910510	         -0.05642500	          0.00000000	          0.00044515	         -0.00000000	          0.00000000	          0.00000000	          0.00000000	          0.00000000	          0.00000000	          0.00000000	          0.06095399	          0.00000000	          0.00000000	          0.00000000	          0.00000000	
          1.28000000	        -10.08762728	         84.23810664	         -6.43527458	         -0.07582822	          0.00000000	          0.00002208	         -0.00000000	          0.00000000	          0.00000000	          0.00000000	          0.00000000	          0.00000000	          0.00000000	          0.06561088	          0.00000000	          0.00000000	          0.00000000	          0.00000000	
          1.28100000	        -10.89758582	         90.01932692	         -6.79904700	         -0.09502546	          0.00000000	         -0.00039867	         -0.00000000	          0.00000000	          0.00000000	          0.00000000	          0.00000000	          0.00000000	          0.00000000	          0.07061439	          0.00000000	          0.00000000	          0.00000000	          0.00000000	
          1.28200000	        -11.72707152	         95.93892329	         -7.16959570	         -0.11396656	          0.00000000	         -0.00081634	         -0.00000000	          0.00000000	          0.00000000	          0.00000000	          0.00000000	          0.00000000	          0.00000000	          0.07597078	          0.00000000	          0.00000000	          0.00000000	          0.00000000	
          1.28300000	        -12.57481905	        101.98618250	         -7.54598629	         -0.13260217	          0.00000000	         -0.00123021	         -0.00000000	          0.00000000	          0.00000000	          0.00000000	          0.00000000	          0.00000000	          0.00000000	          0.08168501	          0.00000000	          0.00000000	          0.00000000	          0.00000000	
          1.28400000	        -13.43942953	        108.14904002	         -7.92716860	         -0.15088623	          0.00000000	         -0.00163965	         -0.00000000	          0.00000000	          0.00000000	          0.00000000	          0.00000000	          0.00000000	          0.00000000	          0.08776032	          0.00000000	          0.00000000	          0.00000000	          0.00000000	
          1.28500000	        -14.31940188	        114.41415049	         -8.31196894	         -0.16877752	          0.00000000	         -0.00204415	         -0.00000000	          0.00000000	          0.00000000	          0.00000000	          0.00000000	          0.00000000	          0.00000000	          0.09419818	          0.00000000	          0.00000000	          0.00000000	          0.00000000	
          1.28600000	        -15.21317120	        120.76702264	         -8.69908355	         -0.18623979	          0.00000000	         -0.00244330	         -0.00000000	          0.00000000	          0.00000000	          0.00000000	          0.00000000	          0.00000000	          0.00000000	          0.10099855	          0.00000000	          0.00000000	          0.00000000	          0.00000000	
          1.28700000	        -16.11915293	        127.19222551	         -9.08707392	         -0.20324144	          0.00000000	         -0.00283678	         -0.00000000	          0.00000000	         -0.00000000	          0.00000000	          0.00000000	          0.00000000	          0.00000000	          0.10816042	          0.00000000	          0.00000000	          0.00000000	          0.00000000	
          1.28800000	        -17.03579072	        133.67367042	         -9.47436437	         -0.21975531	          0.00000000	         -0.00322433	         -0.00000000	          0.00000000	         -0.00000000	          0.00000000	          0.00000000	          0.00000000	          0.00000000	          0.11568250	          0.00000000	          0.00000000	          0.00000000	          0.00000000	
          1.28900000	        -17.96160373	        140.19496183	         -9.85924315	         -0.23575830	          0.00000000	         -0.00360580	         -0.00000000	          0.00000000	         -0.00000000	          0.00000000	          0.00000000	          0.00000000	          0.00000000	          0.12356383	          0.00000000	          0.00000000	          0.00000000	          0.00000000	
          1.29000000	        -18.89522800	        146.73979616	        -10.23986841	         -0.25123120	          0.00000000	         -0.00398111	         -0.00000000	          0.00000000	         -0.00000000	          0.00000000	          0.00000000	          0.00000000	          0.00000000	          0.13180437	          0.00000000	          0.00000000	          0.00000000	          0.00000000	
          1.29100000	        -19.83544675	        153.29237324	        -10.61428035	         -0.26615840	          0.00000000	         -0.00435024	         -0.00000000	          0.00000000	         -0.00000000	          0.00000000	          0.00000000	          0.00000000	          0.00000000	          0.14040529	          0.00000000	          0.00000000	          0.00000000	          0.00000000	
          1.29200000	        -20.78120617	        159.83777793	        -10.98042049	         -0.28052763	          0.00000000	         -0.00471327	         -0.00000000	          0.00000000	         -0.00000000	          0.00000000	          0.00000000	          0.00000000	          0.00000000	          0.14936916	          0.00000000	          0.00000000	          0.00000000	          0.00000000	
